# xmcd
#
# Track frame offsets:
#        150
#        21138
#        35570
#        56385
#        82152
#        108641
#        125105
#        146991
#        167137
#
# Disc length: 2507 seconds
#
# Revision: 0
# Processed by: cddbd v1.5.1PL2 Copyright (c) Steve Scherf et al.
# Submitted via: ExactAudioCopy v0.95b2
#
DISCID=8409c909
DTITLE=Decapitated - Organic Hallucinosis
DYEAR=2006
DGENRE=Death Metal
TTITLE0=A Poem About An Old Prison Man
TTITLE1=Day69
TTITLE2=Revelation Of Existence (The Trip)
TTITLE3=Post(?) Organic
TTITLE4=Visual Delusion
TTITLE5=Flash-B(l)ack
TTITLE6=Invisible Control
TTITLE7=Nihility (Anti-Human Manifesto)
TTITLE8=Spheres Of Madness
EXTD=
EXTT0=
EXTT1=
EXTT2=
EXTT3=
EXTT4=
EXTT5=
EXTT6=
EXTT7=
EXTT8=
PLAYORDER=
